<svg xmlns="http://www.w3.org/2000/svg" height="800" width="600" version="1.1" xmlns:xlink="http://www.w3.org/1999/xlink">

<defs>

<path id="clear-day" d="M-3.875 15.375q0-0.609 0.422-1.031 0.438-0.406 1-0.406h3.406q0.578 0 0.961 0.422t0.383 1.016-0.383 1.008-0.961 0.414h-3.406q-0.578 0-1-0.422t-0.422-1zM0.891 26.922q0-0.578 0.391-1.016l2.453-2.375q0.375-0.391 0.984-0.391 0.594 0 0.992 0.375t0.398 0.953q0 0.609-0.406 1.063l-2.375 2.375q-1.016 0.797-2.047 0-0.391-0.422-0.391-0.984zM0.891 3.844q0-0.578 0.391-1.016 0.484-0.406 1.063-0.406 0.547 0 0.984 0.406l2.375 2.453q0.406 0.375 0.406 0.984 0 0.594-0.398 0.992t-0.992 0.398q-0.609 0-0.984-0.406l-2.453-2.375q-0.391-0.422-0.391-1.031zM5.141 15.375q0-2.328 1.172-4.336t3.18-3.18 4.336-1.172q1.75 0 3.359 0.695t2.773 1.859 1.852 2.773 0.688 3.359q0 2.344-1.164 4.344t-3.164 3.164-4.344 1.164-4.344-1.164-3.172-3.164-1.172-4.344zM7.969 15.375q0 2.438 1.711 4.164t4.148 1.727 4.164-1.727 1.727-4.164q0-2.406-1.727-4.109t-4.164-1.703q-2.422 0-4.141 1.703t-1.719 4.109zM12.406 28.328q0-0.594 0.414-1t1.008-0.406q0.609 0 1.016 0.406t0.406 1v3.313q0 0.609-0.414 1.031t-1.008 0.422-1.008-0.422-0.414-1.031v-3.313zM12.406 2.5v-3.406q0-0.578 0.422-1t1-0.422 1 0.422 0.422 1v3.406q0 0.578-0.414 0.961t-1.008 0.383-1.008-0.383-0.414-0.961zM21.609 24.469q0-0.578 0.375-0.938 0.375-0.391 0.938-0.391 0.609 0 1 0.391l2.438 2.375q0.406 0.438 0.406 1.016t-0.406 0.984q-1 0.781-2 0l-2.375-2.375q-0.375-0.422-0.375-1.063zM21.609 6.266q0-0.625 0.375-0.984l2.375-2.453q0.438-0.406 0.984-0.406 0.594 0 1.008 0.422t0.414 1q0 0.625-0.406 1.031l-2.438 2.375q-0.453 0.406-1 0.406-0.563 0-0.938-0.398t-0.375-0.992zM25.375 15.375q0-0.594 0.406-1.031 0.406-0.406 0.953-0.406h3.375q0.578 0 1.008 0.43t0.43 1.008-0.43 1-1.008 0.422h-3.375q-0.578 0-0.969-0.414t-0.391-1.008z"/>

<path id="clear-night" d="M0.234 15.141q0-2.391 0.938-4.578t2.516-3.773 3.773-2.531 4.586-0.945h1.922q0.391 0.109 0.391 0.469l0.063 1.469q0.094 3.172 2.289 5.406t5.32 2.359l1.375 0.109q0.391 0 0.391 0.391v1.625q0.016 3.203-1.555 5.93t-4.281 4.313-5.914 1.586q-2.438 0-4.625-0.938t-3.766-2.523-2.5-3.773-0.922-4.594zM3.281 15.141q0 2.531 1.281 4.602t3.281 3.18 4.203 1.109q1.453 0 2.93-0.57t2.75-1.594 2.188-2.617 1.18-3.484q-4.078-0.844-6.539-3.492t-2.836-6.227q-2.359 0.125-4.32 1.453t-3.039 3.367-1.078 4.273z"/>

<path id="rain" d="M0.031 19.188q0-2.875 1.797-5.117t4.547-2.883q0.781-3.406 3.516-5.594t6.25-2.188q3.438 0 6.133 2.133t3.508 5.477h0.547q2.234 0 4.141 1.086t3.016 2.969 1.109 4.117q0 1.641-0.625 3.148t-1.688 2.609-2.539 1.781-3.102 0.727q-0.313 0-0.313-0.281v-2.219q0-0.297 0.313-0.297 2.125-0.109 3.633-1.703t1.508-3.766q0-2.188-1.617-3.781t-3.836-1.594h-2.703q-0.281 0-0.281-0.281l-0.125-0.969q-0.281-2.703-2.328-4.523t-4.75-1.82q-2.734 0-4.758 1.82t-2.273 4.523l-0.125 0.891q0 0.313-0.328 0.313l-0.875 0.047q-2.078 0.25-3.492 1.781t-1.414 3.594q0 2.172 1.5 3.766t3.641 1.703q0.281 0 0.281 0.297v2.219q0 0.281-0.281 0.281-3.344-0.156-5.664-2.547t-2.32-5.719zM8.969 30.328q0-0.156 0.047-0.328l2.719-9.609q0.156-0.484 0.539-0.734t0.773-0.25q0.188 0 0.422 0.047 0.594 0.109 0.891 0.609t0.125 1.109l-2.719 9.547q-0.313 1.063-1.375 1.063-0.078 0-0.172-0.031-0.141-0.047-0.188-0.047-0.531-0.156-0.797-0.555t-0.266-0.82zM13.344 35.016l4.047-14.625q0.109-0.484 0.5-0.734t0.828-0.25q0.203 0 0.438 0.047 0.563 0.156 0.828 0.648t0.109 1.070l-4.063 14.641q-0.094 0.422-0.477 0.719t-0.836 0.297q-0.25 0-0.438-0.078-0.5-0.125-0.859-0.656-0.266-0.422-0.078-1.078zM20.219 30.375q0-0.172 0.047-0.375l2.719-9.609q0.141-0.484 0.508-0.734t0.773-0.25q0.219 0 0.453 0.047 0.5 0.141 0.758 0.516t0.258 0.781q0 0.078-0.031 0.227t-0.031 0.195l-2.703 9.547q-0.094 0.484-0.477 0.773t-0.852 0.289l-0.406-0.078q-0.5-0.141-0.758-0.531t-0.258-0.797z"/>

<path id="snow" d="M-0.016 19.25q0-2.891 1.773-5.133t4.57-2.93q0.781-3.406 3.508-5.594t6.258-2.188q3.438 0 6.133 2.133t3.508 5.477h0.531q2.234 0 4.141 1.102t3.016 3 1.109 4.133q0 3.313-2.313 5.703t-5.625 2.5q-0.328 0-0.328-0.281v-2.219q0-0.297 0.328-0.297 2.125-0.109 3.633-1.695t1.508-3.711q0-2.219-1.609-3.828t-3.859-1.609h-2.688q-0.297 0-0.297-0.281l-0.125-0.969q-0.281-2.703-2.32-4.531t-4.742-1.828q-2.75 0-4.773 1.844t-2.289 4.578l-0.109 0.828q0 0.313-0.313 0.313l-0.875 0.109q-2.078 0.172-3.492 1.727t-1.414 3.648q0 2.125 1.508 3.711t3.633 1.695q0.281 0 0.281 0.297v2.219q0 0.281-0.281 0.281-3.344-0.109-5.664-2.5t-2.32-5.703zM10.594 26.031q0-0.563 0.398-0.969t0.977-0.406 0.977 0.406 0.398 0.969q0 0.594-0.398 1.008t-0.977 0.414-0.977-0.414-0.398-1.008zM10.594 32.078q0-0.594 0.406-1 0.406-0.375 0.969-0.375 0.594 0 0.984 0.391t0.391 0.984-0.391 0.984-0.984 0.391-0.984-0.391-0.391-0.984zM15.906 29.25q0-0.578 0.422-1.031 0.406-0.406 0.953-0.406 0.594 0 1.016 0.43t0.422 1.008-0.422 0.992-1.016 0.414q-0.563 0-0.969-0.414t-0.406-0.992zM15.906 23.219q0-0.578 0.422-1 0.438-0.406 0.953-0.406 0.594 0 1.016 0.414t0.422 0.992-0.422 0.977-1.016 0.398q-0.563 0-0.969-0.398t-0.406-0.977zM15.906 35.344q0-0.563 0.422-1.016 0.406-0.406 0.953-0.406 0.594 0 1.016 0.422t0.422 1-0.422 0.977-1.016 0.398q-0.563 0-0.969-0.398t-0.406-0.977zM21.281 26.031q0-0.547 0.422-0.961t1-0.414 0.977 0.406 0.398 0.969q0 0.594-0.398 1.008t-0.977 0.414-1-0.422-0.422-1zM21.281 32.078q0-0.547 0.422-1 0.391-0.375 1-0.375 0.578 0 0.977 0.391t0.398 0.984-0.398 0.984-0.977 0.391q-0.594 0-1.008-0.398t-0.414-0.977z"/>

<path id="sleet" d="M0.031 19.172q0 3.328 2.32 5.719t5.664 2.547q0.281 0 0.281-0.281v-2.234q0-0.281-0.281-0.281-2.141-0.109-3.641-1.703t-1.5-3.766q0-2.063 1.406-3.594t3.484-1.781l0.891-0.047q0.328 0 0.328-0.313l0.109-0.891q0.266-2.703 2.281-4.523t4.75-1.82q2.719 0 4.758 1.82t2.32 4.523l0.125 0.969q0 0.281 0.281 0.281h2.688q2.219 0 3.844 1.594t1.625 3.781q0 2.172-1.508 3.766t-3.633 1.703q-0.328 0-0.328 0.281v2.234q0 0.281 0.328 0.281 1.625-0.047 3.102-0.727t2.539-1.781 1.688-2.609 0.625-3.148q0-2.234-1.117-4.117t-3.023-2.969-4.141-1.086h-0.531q-0.813-3.344-3.508-5.469t-6.133-2.125q-3.516 0-6.25 2.18t-3.5 5.586q-2.766 0.641-4.555 2.883t-1.789 5.117zM9.109 31.172q0.234 0.531 0.766 0.766 0.5 0.25 1.039 0.031t0.742-0.75q0.25-0.547 0.047-1.070t-0.75-0.727q-0.5-0.266-1.031-0.047t-0.781 0.781q-0.234 0.406-0.031 1.016zM10.156 26.469q0 0.391 0.266 0.758t0.781 0.539q0.484 0.281 1.031 0.023t0.734-0.992l1.5-5.641q0.156-0.625-0.133-1.117t-0.883-0.602q-0.203-0.047-0.422-0.047-0.391 0-0.773 0.25t-0.539 0.734l-1.484 5.656q-0.078 0.344-0.078 0.438zM13.266 35.781q0 0.297 0.094 0.484 0.219 0.547 0.75 0.75 0.234 0.125 0.547 0.125 0.156 0 0.5-0.094 0.563-0.203 0.805-0.75t-0.008-1.094-0.75-0.766-1.047 0q-0.469 0.203-0.68 0.594t-0.211 0.75zM14.484 31.438q0 0.922 1.047 1.219 0.281 0.063 0.422 0.063 0.375 0 0.641-0.125 0.5-0.188 0.688-0.953l2.797-10.484q0.156-0.594-0.109-1.078t-0.828-0.641q-0.219-0.047-0.438-0.047-0.422 0-0.82 0.25t-0.492 0.734l-2.844 10.563q-0.063 0.344-0.063 0.5zM20.219 30.672q0 0.297 0.125 0.531 0.203 0.484 0.734 0.734 0.281 0.109 0.563 0.109 0.156 0 0.5-0.094 0.531-0.203 0.766-0.734 0.188-0.547-0.008-1.047t-0.695-0.75q-0.563-0.266-1.086-0.047t-0.773 0.781q-0.125 0.234-0.125 0.516zM21.406 26.391q0 0.359 0.266 0.75t0.75 0.547q0.391 0.078 0.453 0.078 0.234 0 0.609-0.172 0.5-0.234 0.672-0.875l1.5-5.563q0-0.047 0.031-0.203t0.031-0.234q0-0.391-0.258-0.766t-0.758-0.516q-0.219-0.047-0.453-0.047-0.406 0-0.773 0.242t-0.508 0.742l-1.5 5.594q0 0.047-0.031 0.188t-0.031 0.234z"/>

<path id="wind" d="M-3.609 26.016q0-0.609 0.438-1.047 0.438-0.406 1-0.406h9.016q1.844 0 3.148 1.32t1.305 3.164q0 1.859-1.297 3.164t-3.156 1.305-3.172-1.313q-0.391-0.391-0.391-1t0.383-1.008 1.008-0.398q0.594 0 1.031 0.406 0.5 0.484 1.141 0.484 0.656 0 1.141-0.477t0.484-1.164q0-0.656-0.484-1.133t-1.141-0.477h-9.016q-0.594 0-1.016-0.422t-0.422-1zM-3.609 20.953q0-0.594 0.438-1.031 0.438-0.406 1-0.406h17.563q0.656 0 1.141-0.484t0.484-1.156-0.484-1.148-1.141-0.477q-0.688 0-1.141 0.469-0.438 0.375-1.047 0.375t-0.992-0.383-0.383-0.992q0-0.625 0.375-1.016 1.266-1.266 3.188-1.266 1.859 0 3.164 1.297t1.305 3.141-1.305 3.148-3.164 1.305h-17.563q-0.594 0-1.016-0.398t-0.422-0.977zM-0.031 17.016q0 0.203 0.266 0.203h2.406q0.203 0 0.359-0.25 0.563-1.359 1.75-2.25t2.656-1l0.875-0.125q0.328 0 0.328-0.281l0.125-0.859q0.266-2.703 2.289-4.539t4.773-1.836q2.766 0 4.797 1.82t2.313 4.555l0.125 0.984q0 0.281 0.297 0.281h2.688q2.266 0 3.883 1.594t1.617 3.828-1.617 3.828-3.883 1.594h-11.516q-0.297 0-0.297 0.281v2.313q0 0.281 0.297 0.281h11.516q2.266 0 4.18-1.109t3.031-3.023 1.117-4.164q0-2.266-1.117-4.172t-3.031-3.016-4.18-1.109h-0.516q-0.781-3.328-3.492-5.453t-6.211-2.125q-3.531 0-6.25 2.195t-3.453 5.617q-2.141 0.5-3.797 2.055t-2.297 3.68v0.063q-0.031 0.078-0.031 0.141z"/>

<path id="fog" d="M0.031 16.828q0-0.563 0.391-0.938t0.953-0.375h20.141q0.547 0 0.906 0.367t0.359 0.945q0 0.547-0.359 0.906t-0.906 0.359h-20.141q-0.563 0-0.953-0.359t-0.391-0.906zM4.078 12q0-0.547 0.391-0.922 0.375-0.375 0.922-0.375h20.156q0.531 0 0.906 0.375t0.375 0.922-0.375 0.93-0.906 0.383h-20.156q-0.547 0-0.93-0.383t-0.383-0.93zM6.75 21.563q0-0.531 0.406-0.906 0.359-0.359 0.922-0.359h20.156q0.563 0 0.938 0.359t0.375 0.906-0.383 0.938-0.93 0.391h-20.156q-0.547 0-0.938-0.391t-0.391-0.938zM24.391 16.828q0-0.578 0.375-0.945t0.953-0.367h7.516q0.578 0 0.945 0.375t0.367 0.938q0 0.547-0.375 0.906t-0.938 0.359h-7.516q-0.578 0-0.953-0.359t-0.375-0.906z"/>

<path id="cloudy" d="M0.047 20.328q0-2.484 1.555-4.414t3.977-2.477q0.641-2.938 2.961-4.805t5.352-1.867q2.953 0 5.273 1.82t3.008 4.664h0.453q2.938 0 5.023 2.070t2.086 5.008q0 1.922-0.953 3.563t-2.594 2.594-3.563 0.953h-15.469q-1.438 0-2.758-0.563t-2.273-1.516-1.516-2.273-0.563-2.758zM2.484 20.328q0 1.906 1.367 3.273t3.305 1.367h15.469q1.938 0 3.32-1.367t1.383-3.273-1.383-3.266-3.32-1.359h-2.297q-0.25 0-0.25-0.25l-0.109-0.813q-0.25-2.359-1.984-3.914t-4.094-1.555-4.094 1.563-1.953 3.906l-0.109 0.703q0 0.25-0.266 0.25l-0.75 0.109q-1.797 0.156-3.016 1.484t-1.219 3.141zM17.234 5.797q-0.25 0.234 0.125 0.344 1.031 0.453 1.781 0.922 0.281 0.078 0.375-0.047 1.516-1.438 3.531-1.438 2.031 0 3.508 1.352t1.648 3.336l0.156 1.063h2.359q1.625 0 2.789 1.164t1.164 2.773q0 1.5-1.023 2.609t-2.539 1.281q-0.25 0-0.25 0.266v1.891q0 0.266 0.25 0.266 2.516-0.156 4.25-1.984t1.734-4.328q0-2.641-1.867-4.508t-4.508-1.867h-0.25q-0.656-2.5-2.742-4.117t-4.68-1.617q-3.516 0-5.813 2.641z"/>

<path id="partly-cloudy-day" d="M0.125 19.172q0 2.25 1.102 4.156t2.992 3.008 4.125 1.102h18.047q2.234 0 4.141-1.102t3.016-3.008 1.109-4.156q0-1.656-0.703-3.328 1.906-2.328 1.906-5.516 0-1.781-0.688-3.398t-1.859-2.789-2.789-1.859-3.398-0.688q-3.703 0-6.469 2.906-1.938-1.094-4.5-1.094-3.516 0-6.219 2.18t-3.469 5.586q-2.797 0.641-4.57 2.875t-1.773 5.125zM2.969 19.172q0-2.094 1.398-3.609t3.508-1.766l0.828-0.047q0.313 0 0.313-0.297l0.109-0.906q0.344-2.703 2.344-4.523t4.688-1.82q2.75 0 4.789 1.828t2.289 4.516l0.125 0.969q0.063 0.281 0.344 0.281h2.688q2.203 0 3.797 1.594t1.594 3.781q0 2.266-1.586 3.867t-3.805 1.602h-18.047q-2.188 0-3.781-1.617t-1.594-3.852zM14.141-1.281q0 0.609 0.406 1.047l1.094 1.063q0.625 0.469 1.063 0.422 0.516 0 0.922-0.43t0.406-1.039-0.438-0.984l-0.984-1.094q-0.453-0.406-1.016-0.406-0.609 0-1.031 0.414t-0.422 1.008zM23.047 6.094q1.734-1.672 4.078-1.672 2.469 0 4.195 1.719t1.727 4.188q0 1.563-0.844 3.063-2.422-2.391-5.813-2.391h-0.531q-0.625-2.719-2.813-4.906zM25.75-2.703q0 0.641 0.391 1.031t0.984 0.391q0.641 0 1.031-0.391t0.391-1.031v-3.406q0-0.594-0.398-0.984t-1.023-0.391q-0.594 0-0.984 0.391t-0.391 0.984v3.406zM34.953 1.125q0 0.641 0.375 1.031 0.531 0.406 1.031 0.406 0.453 0 0.984-0.406l2.391-2.391q0.406-0.453 0.406-1.063 0-0.594-0.406-1t-0.984-0.406q-0.594 0-0.969 0.406l-2.453 2.391q-0.375 0.438-0.375 1.031zM36.281 20.844q0 0.594 0.422 1.047l1.078 1.047q0.375 0.406 0.969 0.406t0.992-0.414 0.398-1.039q0-0.563-0.406-0.969l-1.078-1.078q-0.406-0.406-0.953-0.406-0.594 0-1.008 0.406t-0.414 1zM38.719 10.328q0 0.578 0.438 0.969 0.406 0.406 1.016 0.406h3.406q0.578 0 0.961-0.391t0.383-0.984-0.383-1.008-0.961-0.414h-3.406q-0.594 0-1.023 0.422t-0.43 1z"/>

<path id="partly-cloudy-night" d="M0.047 19.156q0 2.234 1.094 4.133t2.984 3.008 4.125 1.109h18.016q2.234 0 4.133-1.109t3.008-3.008 1.109-4.133q0-1.625-0.688-3.328 1.891-2.313 1.891-5.5 0-2.375-1.164-4.383t-3.172-3.18-4.383-1.172q-3.734 0-6.453 2.906-1.906-1.078-4.469-1.078-3.516 0-6.219 2.172t-3.469 5.578q-2.797 0.625-4.57 2.859t-1.773 5.125zM2.891 19.156q0-2.078 1.391-3.594t3.5-1.766l1.141-0.047 0.109-1.203q0.344-2.703 2.352-4.523t4.695-1.82q1.797 0 3.352 0.828t2.539 2.289 1.156 3.227l0.172 1.25h2.969q2.203 0 3.797 1.586t1.594 3.773q0 2.25-1.586 3.859t-3.805 1.609h-18.016q-2.172 0-3.766-1.625t-1.594-3.844zM22.953 6.094q1.719-1.656 4.047-1.656 2.469 0 4.195 1.711t1.727 4.18q0 1.563-0.844 3.063-2.391-2.391-5.813-2.391h-0.516q-0.688-2.797-2.797-4.906z"/>

<path id="default" d="M-0.156 21.531q0-1.359 0.633-2.547t1.773-1.969v-10.641q0-1.281 0.875-2.18t2.156-0.898q1.297 0 2.188 0.898t0.891 2.18v10.641q1.125 0.797 1.758 1.977t0.633 2.539q0 2.266-1.602 3.867t-3.867 1.602-3.852-1.602-1.586-3.867zM1.719 21.531q0 1.5 1.047 2.563t2.516 1.063q1.516 0 2.594-1.070t1.078-2.555q0-1-0.516-1.844t-1.422-1.313l-0.297-0.172q-0.172-0.078-0.172-0.297v-11.531q0-0.5-0.367-0.852t-0.898-0.352q-0.5 0-0.867 0.352t-0.367 0.852v11.531q0 0.234-0.156 0.297l-0.297 0.172q-0.891 0.469-1.383 1.305t-0.492 1.852zM2.656 21.469q0 1.125 0.766 1.914t1.859 0.789 1.891-0.789 0.797-1.914q0-1-0.688-1.766t-1.656-0.891v-7.734q0-0.094-0.109-0.195t-0.234-0.102q-0.297 0-0.297 0.297v7.734q-0.969 0.125-1.648 0.891t-0.68 1.766z"/>

</defs>

<g transform="scale(5.0) translate(14 26)">
    <use xlink:href="#TODAY_IMG"/>
</g>

<text transform="matrix(1 0 0 1 13.5796 44.3936)" font-family="Fira Mono" font-weight="bold" font-size="43">WEEKDAY_NAME</text>
<text transform="matrix(1 0 0 1 13.5796 77.8936)" font-family="Fira Mono" font-weight="bold" font-size="43">DATE_NUMBER</text>

<text transform="matrix(1 0 0 1 163.1357 40)" font-family="Fira Sans" font-weight="medium" font-size="33.372">SUNRISE</text>
<text transform="matrix(1 0 0 1 170.4775 69)" font-family="Fira Sans" font-weight="medium" font-size="33.372">SUNSET</text>

<text transform="matrix(1 0 0 1 325.7881 56.0879)" font-family="Fira Sans" font-weight="bold" font-size="43">TODAY_RAINPROB</text>

<text transform="matrix(1 0 0 1 509.6562 56.0879)" font-family="Fira Sans" font-weight="bold" font-size="43">TODAY_WINDSPEED</text>

<text transform="matrix(1 0 0 1 520.0312 204.2686)" font-family="Fira Sans" font-weight="bold" text-anchor="end" font-size="90">TODAY_TEMPMIN</text>
<text transform="matrix(1 0 0 1 520.0312 281.9053)" font-family="Fira Sans" font-weight="bold" text-anchor="end" font-size="90">TODAY_TEMPMAX</text>

<!-- tomorrow -->

<g transform="scale(1.2) translate(125 310)">
    <use xlink:href="#TOM_IMG"/>
</g>

<text transform="matrix(1 0 0 1 25.2988 408.8711)" font-family="Fira Sans" font-weight="bold" font-size="43">TOM_RAINPROB</text>

<text transform="matrix(1 0 0 1 505.6562 409.0439)" font-family="Fira Sans" font-weight="bold" font-size="43">TOM_WINDSPEED</text>

<text transform="matrix(1 0 0 1 230.3301 408.8711)" font-family="Fira Sans" font-weight="bold" font-size="43">TOM_TEMPMIN</text>
<text transform="matrix(1 0 0 1 342.4844 408.8711)" font-family="Fira Sans" font-weight="bold" font-size="43">TOM_TEMPMAX</text>

<image overflow="visible" width="600" height="370" xlink:href="GRAPHIMAGEPATH" transform="matrix(1 0 0 1 0 425)"></image>

<line fill="none" stroke="#000000" stroke-width="2" stroke-miterlimit="10" x1="585.665" y1="363.079" x2="7.665" y2="363.079"/>
<line fill="none" stroke="#000000" stroke-width="2" stroke-miterlimit="10" x1="585.665" y1="426.075" x2="7.665" y2="426.075"/>

<!-- sunrise symbol today -->

<g transform="translate(727 144)">
    <path d="M-651.699-94.742c0-0.877,0.304-1.566,0.908-2.067c0.48-0.501,1.169-0.752,2.068-0.752h6.953
        c0.814,0,1.488,0.266,2.021,0.799c0.534,0.532,0.798,1.206,0.798,2.021c0,0.795-0.271,1.472-0.813,2.036
        c-0.542,0.564-1.21,0.846-2.005,0.846h-6.953c-0.814,0-1.514-0.282-2.1-0.846c-0.585-0.563-0.879-1.241-0.879-2.036H-651.699z
         M-648.566-77.765c0-0.793,0.281-1.472,0.846-2.036c0.542-0.522,1.221-0.783,2.035-0.783h60.83c0.814,0,1.51,0.27,2.084,0.812
        c0.575,0.542,0.863,1.212,0.863,2.005c0,0.795-0.294,1.478-0.879,2.052c-0.586,0.574-1.275,0.859-2.068,0.861h-60.83
        c-0.793,0-1.472-0.288-2.035-0.861c-0.564-0.576-0.846-1.259-0.846-2.052V-77.765z M-641.77-118.423
        c0-0.855,0.26-1.513,0.783-1.972c0.563-0.604,1.253-0.908,2.067-0.908s1.503,0.304,2.067,0.908l4.824,4.889
        c0.562,0.54,0.846,1.21,0.846,2.005c0,0.834-0.273,1.517-0.814,2.05c-0.543,0.53-1.211,0.796-2.006,0.796
        c-0.729,0-1.398-0.27-2.004-0.812l-4.98-4.918C-641.51-116.845-641.77-117.524-641.77-118.423z M-633.062-94.742
        c0,2.903,0.595,5.503,1.787,7.799c0.104,0.313,0.364,0.47,0.783,0.47h5.575c0.251,0,0.404-0.068,0.455-0.204
        c0.053-0.137-0.025-0.319-0.235-0.548c-1.755-2.15-2.632-4.656-2.632-7.518c0-3.32,1.191-6.149,3.571-8.489
        c2.379-2.337,5.22-3.508,8.521-3.508c3.318,0,6.152,1.171,8.502,3.508c2.352,2.339,3.525,5.168,3.525,8.489
        c0,2.838-0.898,5.344-2.695,7.518c-0.125,0.207-0.188,0.344-0.188,0.407c-0.021,0.104,0.01,0.188,0.094,0.25
        c0.084,0.062,0.199,0.094,0.344,0.094h5.703c0.292,0,0.523-0.157,0.689-0.47c1.231-2.318,1.848-4.917,1.848-7.799
        c0-3.195-0.799-6.167-2.396-8.912c-1.596-2.745-3.768-4.922-6.515-6.531c-2.747-1.609-5.717-2.412-8.909-2.412
        c-3.195,0.002-6.165,0.807-8.912,2.412c-2.746,1.605-4.918,3.784-6.516,6.531c-1.597,2.749-2.396,5.718-2.396,8.912H-633.062z
         M-618.152-121.242v-6.985c0-0.795,0.287-1.484,0.861-2.067c0.576-0.583,1.26-0.877,2.053-0.877
        c0.791-0.002,1.479,0.29,2.064,0.877c0.586,0.587,0.879,1.276,0.879,2.067v6.985c0,0.793-0.293,1.482-0.879,2.067
        c-0.585,0.583-1.273,0.877-2.064,0.877c-0.793,0-1.477-0.292-2.053-0.877C-617.865-119.762-618.152-120.451-618.152-121.242z
         M-599.357-113.505c0-0.793,0.281-1.461,0.846-2.005l4.823-4.887c0.563-0.606,1.241-0.908,2.036-0.908
        c0.836,0,1.535,0.278,2.099,0.83c0.563,0.552,0.846,1.237,0.846,2.052c0,0.855-0.251,1.535-0.751,2.036l-5.043,4.918
        c-0.543,0.501-1.201,0.751-1.975,0.751c-0.834,0.02-1.522-0.231-2.066-0.751c-0.543-0.523-0.812-1.202-0.812-2.036H-599.357z
         M-591.59-94.742c0-0.877,0.282-1.566,0.846-2.067c0.48-0.501,1.128-0.752,1.942-0.752h6.985c0.814,0,1.508,0.266,2.082,0.799
        c0.574,0.532,0.862,1.206,0.862,2.021c0,0.795-0.294,1.472-0.878,2.036c-0.587,0.564-1.273,0.846-2.066,0.846h-6.985
        c-0.771,0-1.429-0.282-1.974-0.846c-0.542-0.563-0.812-1.241-0.812-2.036H-591.59z"/>
</g>

<!-- rain probability symbol today-->

<circle fill="#FFFFFF" stroke="#000000" stroke-width="4" stroke-miterlimit="10" cx="285.578" cy="43.471" r="28.123"/>
<g transform="translate(365 48)">
    <path d="M-96.704-4.405c0-1.917,0.599-3.623,1.797-5.117s2.714-2.456,4.547-2.883c0.521-2.271,1.692-4.135,3.516-5.594
        c1.823-1.458,3.907-2.188,6.25-2.188c2.292,0,4.337,0.711,6.134,2.133c1.796,1.422,2.966,3.248,3.508,5.477h0.547
        c1.489,0,2.869,0.362,4.141,1.086s2.277,1.713,3.017,2.969s1.108,2.628,1.108,4.117c0,1.094-0.208,2.144-0.625,3.148
        c-0.416,1.005-0.979,1.875-1.688,2.609c-0.709,0.735-1.556,1.329-2.539,1.781c-0.984,0.453-2.019,0.695-3.103,0.727
        c-0.208,0-0.312-0.094-0.312-0.281V1.36c0-0.198,0.104-0.297,0.312-0.297c1.417-0.073,2.628-0.641,3.634-1.703
        c1.005-1.063,1.508-2.318,1.508-3.766c0-1.458-0.539-2.719-1.617-3.781c-1.078-1.062-2.356-1.594-3.836-1.594h-2.703
        c-0.188,0-0.281-0.094-0.281-0.281l-0.125-0.969c-0.188-1.802-0.963-3.31-2.328-4.523c-1.364-1.213-2.947-1.82-4.75-1.82
        c-1.822,0-3.408,0.607-4.758,1.82c-1.349,1.213-2.106,2.721-2.272,4.523l-0.125,0.891c0,0.208-0.109,0.313-0.328,0.313
        l-0.875,0.047c-1.386,0.167-2.55,0.76-3.492,1.781c-0.942,1.021-1.414,2.219-1.414,3.594c0,1.448,0.5,2.704,1.5,3.766
        s2.214,1.63,3.641,1.703c0.188,0,0.281,0.099,0.281,0.297V3.58c0,0.188-0.094,0.281-0.281,0.281
        c-2.229-0.104-4.117-0.953-5.664-2.547c-1.546-1.594-2.319-3.5-2.319-5.719H-96.704z M-87.767,6.735
        c0-0.104,0.016-0.213,0.047-0.328L-85-3.202c0.104-0.323,0.283-0.567,0.539-0.734c0.255-0.167,0.513-0.25,0.772-0.25
        c0.125,0,0.266,0.016,0.422,0.047c0.396,0.073,0.693,0.275,0.892,0.609c0.197,0.333,0.239,0.703,0.125,1.109l-2.72,9.547
        c-0.208,0.709-0.667,1.063-1.375,1.063c-0.052,0-0.109-0.011-0.172-0.031c-0.094-0.031-0.156-0.047-0.188-0.047
        c-0.354-0.104-0.62-0.289-0.797-0.555C-87.679,7.29-87.768,7.017-87.767,6.735L-87.767,6.735z M-83.392,11.423l4.047-14.625
        c0.073-0.323,0.239-0.567,0.5-0.734c0.261-0.167,0.537-0.25,0.828-0.25c0.136,0,0.281,0.016,0.438,0.047
        c0.375,0.104,0.651,0.32,0.828,0.648s0.213,0.685,0.108,1.07l-4.062,14.641c-0.062,0.281-0.222,0.521-0.478,0.719
        c-0.255,0.198-0.534,0.297-0.836,0.297c-0.166,0-0.312-0.026-0.438-0.078c-0.334-0.083-0.62-0.302-0.859-0.656
        C-83.491,12.221-83.518,11.861-83.392,11.423L-83.392,11.423z M-76.517,6.782c0-0.115,0.016-0.24,0.047-0.375l2.72-9.609
        c0.094-0.323,0.263-0.567,0.508-0.734c0.244-0.167,0.502-0.25,0.772-0.25c0.146,0,0.297,0.016,0.453,0.047
        c0.334,0.094,0.586,0.266,0.758,0.516C-71.086-3.373-71-3.112-71-2.842c0,0.052-0.011,0.128-0.031,0.227s-0.031,0.165-0.031,0.195
        l-2.703,9.547c-0.062,0.323-0.222,0.581-0.477,0.773c-0.256,0.192-0.539,0.289-0.853,0.289L-75.5,8.111
        c-0.334-0.094-0.586-0.271-0.759-0.531C-76.431,7.32-76.517,7.055-76.517,6.782L-76.517,6.782z"/>
</g>

<!-- wind speed symbol today-->

<circle fill="#FFFFFF" stroke="#000000" stroke-width="4" stroke-miterlimit="10" cx="470.446" cy="43.471" r="28.123"/>
<g transform="translate(625 144)">
    <path d="M-164.185-99.34c0,1.165,0.369,2.158,1.114,2.979c1.353,1.561,3.4,2.339,6.141,2.339c1.225,0,2.363-0.172,3.417-0.517
        c1.114-0.394,2.025-1.014,2.733-1.859c0.706-0.846,1.061-1.827,1.061-2.942c0-0.345-0.039-0.689-0.121-1.034
        c1.426-0.575,2.545-1.351,3.358-2.327c0.812-0.977,1.219-2.097,1.219-3.361c0-0.312-0.03-0.649-0.091-1.011
        c2.34-1.362,3.508-3.201,3.508-5.515c0-1.478-0.512-2.79-1.535-3.939c-2.008-2.184-4.947-3.275-8.822-3.275
        c-1.816,0-3.467,0.263-4.952,0.788c-1.596,0.543-2.89,1.384-3.884,2.525c-0.994,1.141-1.49,2.441-1.49,3.903
        c0,0.837,0.17,1.634,0.512,2.388c-1.225,1.133-1.836,2.512-1.836,4.137c0,1.25,0.381,2.357,1.145,3.324
        C-163.692-101.802-164.185-100.669-164.185-99.34L-164.185-99.34z M-163.568-91.781c0,1.231,0.463,2.196,1.386,2.893
        c0.923,0.699,2.089,1.046,3.493,1.046c1.425,0,2.604-0.348,3.538-1.046c0.933-0.697,1.398-1.662,1.398-2.893
        c0-0.46-0.089-0.846-0.271-1.157c-0.18-0.311-0.411-0.466-0.692-0.468c-0.229,0-0.436,0.132-0.617,0.394
        c-0.182,0.263-0.298,0.583-0.347,0.96c-0.201,0.262-0.576,0.505-1.128,0.727s-1.179,0.333-1.882,0.333
        c-1.136,0-2.053-0.262-2.754-0.788c0.159-0.262,0.247-0.6,0.263-1.009c0.014-0.413-0.038-0.756-0.159-1.034
        c-0.161-0.362-0.369-0.583-0.625-0.665c-0.255-0.083-0.493-0.009-0.715,0.222C-163.271-93.61-163.568-92.781-163.568-91.781
        L-163.568-91.781z M-162.258-99.34c0.009-0.034,0.07-0.132,0.18-0.295c0.091-0.149,0.285-0.338,0.58-0.566
        c0.297-0.229,0.625-0.426,0.984-0.591l0.122-0.1c1.667,0.903,3.613,1.354,5.842,1.354c0.974,0,1.856-0.091,2.648-0.271l0.272,0.394
        c-0.092,0.263-0.312,0.54-0.664,0.835c-0.412,0.363-1.046,0.682-1.904,0.96c-0.859,0.278-1.769,0.418-2.732,0.418
        c-0.963,0.001-1.88-0.138-2.748-0.418c-0.869-0.28-1.512-0.6-1.934-0.96c-0.342-0.245-0.558-0.499-0.648-0.762L-162.258-99.34z
         M-162.139-85.182c0,1.068,0.37,1.89,1.105,2.464c0.738,0.574,1.654,0.862,2.748,0.862c1.115,0,2.045-0.288,2.792-0.862
        c0.748-0.574,1.122-1.396,1.122-2.464c0-0.424-0.096-0.803-0.287-1.132c-0.19-0.33-0.416-0.493-0.676-0.493
        c-0.482,0-0.798,0.402-0.949,1.207c-0.4,0.411-1.067,0.616-2.002,0.616c-0.834,0-1.495-0.205-1.988-0.616
        c-0.148-0.805-0.465-1.207-0.945-1.207c-0.262,0-0.48,0.156-0.656,0.468C-162.052-86.028-162.14-85.642-162.139-85.182
        L-162.139-85.182z M-161.943-106.062c0-0.099,0.057-0.254,0.167-0.468c0.251-0.508,0.737-1,1.46-1.478
        c1.967,1.724,4.672,2.585,8.113,2.585c1.758,0,3.408-0.262,4.953-0.788v0.148c0,0.263-0.09,0.517-0.27,0.763
        c-0.422,0.606-1.209,1.182-2.364,1.724c-1.245,0.608-2.8,0.911-4.666,0.911c-1.888,0-3.453-0.303-4.696-0.911
        c-1.195-0.542-1.993-1.117-2.395-1.724c-0.201-0.262-0.301-0.517-0.301-0.763H-161.943z M-160.602-112.586
        c0-0.295,0.119-0.624,0.359-0.985c0.463-0.705,1.382-1.388,2.756-2.044c1.465-0.706,3.226-1.059,5.283-1.059
        c2.068,0,3.844,0.353,5.328,1.059c1.385,0.656,2.303,1.339,2.756,2.044c0.229,0.377,0.345,0.705,0.345,0.985
        s-0.116,0.591-0.345,0.936c-0.453,0.707-1.371,1.397-2.756,2.07c-1.485,0.707-3.262,1.059-5.328,1.059
        c-2.058,0-3.818-0.352-5.283-1.059c-1.385-0.657-2.303-1.347-2.756-2.07C-160.482-111.996-160.602-112.307-160.602-112.586z"/>
</g>

<!-- wind speed symbol tomorrow-->

<circle fill="#FFFFFF" stroke="#000000" stroke-width="4" stroke-miterlimit="10" cx="475.99" cy="394.49" r="20.5"/>
<g transform="translate(625 144)">
    <path d="M-156.029,251.356c0,0.85,0.27,1.573,0.812,2.173c0.985,1.138,2.479,1.704,4.476,1.704c0.893,0,1.723-0.125,2.491-0.377
        c0.812-0.286,1.477-0.739,1.992-1.354c0.515-0.617,0.773-1.332,0.773-2.146c0-0.25-0.028-0.502-0.088-0.753
        c1.039-0.42,1.854-0.985,2.447-1.696c0.592-0.713,0.889-1.528,0.889-2.449c0-0.229-0.021-0.475-0.066-0.738
        c1.706-0.992,2.558-2.333,2.558-4.021c0-1.076-0.373-2.033-1.119-2.871c-1.464-1.592-3.606-2.388-6.431-2.388
        c-1.324,0-2.527,0.191-3.61,0.575c-1.163,0.396-2.106,1.008-2.831,1.841c-0.725,0.831-1.086,1.778-1.086,2.845
        c0,0.61,0.123,1.191,0.373,1.741c-0.894,0.825-1.339,1.83-1.339,3.016c0,0.91,0.277,1.718,0.834,2.423
        C-155.671,249.562-156.029,250.388-156.029,251.356L-156.029,251.356z M-155.58,256.867c0,0.897,0.337,1.601,1.01,2.109
        s1.523,0.763,2.547,0.763c1.038,0,1.897-0.254,2.579-0.763c0.68-0.509,1.019-1.212,1.019-2.109c0-0.335-0.064-0.617-0.197-0.844
        c-0.131-0.227-0.299-0.34-0.504-0.341c-0.168,0-0.317,0.096-0.45,0.287c-0.132,0.192-0.217,0.426-0.253,0.7
        c-0.146,0.19-0.42,0.367-0.822,0.529c-0.402,0.161-0.859,0.242-1.371,0.242c-0.828,0-1.496-0.19-2.008-0.574
        c0.116-0.19,0.18-0.438,0.191-0.735c0.01-0.301-0.027-0.551-0.116-0.755c-0.117-0.263-0.269-0.425-0.455-0.483
        c-0.187-0.062-0.359-0.008-0.521,0.16C-155.363,255.534-155.58,256.138-155.58,256.867L-155.58,256.867z M-154.625,251.356
        c0.007-0.024,0.051-0.096,0.131-0.215c0.066-0.108,0.208-0.246,0.423-0.413c0.217-0.166,0.456-0.311,0.718-0.431l0.089-0.073
        c1.216,0.659,2.634,0.988,4.259,0.988c0.709,0,1.354-0.067,1.931-0.198l0.198,0.288c-0.066,0.191-0.228,0.393-0.484,0.608
        c-0.3,0.265-0.762,0.497-1.388,0.7s-1.289,0.305-1.992,0.305c-0.702,0.001-1.37-0.101-2.003-0.305
        c-0.634-0.204-1.102-0.438-1.409-0.7C-154.402,251.732-154.561,251.548-154.625,251.356L-154.625,251.356z M-154.538,261.677
        c0,0.779,0.27,1.379,0.806,1.797c0.538,0.418,1.206,0.628,2.004,0.628c0.812,0,1.49-0.21,2.035-0.628s0.817-1.018,0.817-1.797
        c0-0.309-0.069-0.585-0.209-0.825c-0.139-0.24-0.304-0.358-0.493-0.358c-0.352,0-0.581,0.293-0.691,0.879
        c-0.292,0.3-0.778,0.449-1.459,0.449c-0.608,0-1.09-0.149-1.45-0.449c-0.108-0.586-0.339-0.879-0.688-0.879
        c-0.191,0-0.351,0.113-0.479,0.341C-154.475,261.061-154.539,261.342-154.538,261.677L-154.538,261.677z M-154.396,246.458
        c0-0.073,0.041-0.186,0.122-0.342c0.183-0.37,0.537-0.729,1.063-1.077c1.434,1.256,3.405,1.885,5.915,1.885
        c1.281,0,2.484-0.19,3.61-0.574v0.108c0,0.191-0.065,0.376-0.196,0.556c-0.309,0.441-0.882,0.862-1.724,1.256
        c-0.908,0.443-2.041,0.665-3.401,0.665c-1.376,0-2.518-0.222-3.424-0.665c-0.871-0.394-1.453-0.814-1.745-1.256
        C-154.321,246.822-154.395,246.637-154.396,246.458L-154.396,246.458z M-153.418,241.701c0-0.216,0.087-0.454,0.263-0.718
        c0.337-0.514,1.007-1.013,2.009-1.491c1.067-0.514,2.352-0.771,3.852-0.771c1.507,0,2.801,0.258,3.883,0.771
        c1.01,0.479,1.68,0.978,2.01,1.491c0.166,0.274,0.251,0.514,0.251,0.718c0,0.203-0.085,0.431-0.251,0.682
        c-0.33,0.516-1,1.019-2.01,1.509c-1.082,0.515-2.377,0.772-3.883,0.772c-1.5,0-2.784-0.258-3.852-0.772
        c-1.01-0.479-1.679-0.982-2.009-1.509C-153.331,242.132-153.418,241.904-153.418,241.701z"/>
</g>


</svg>
